<svg xmlns="http://www.w3.org/2000/svg" xmlns:xlink="http://www.w3.org/1999/xlink" width="213" height="93" viewBox="0 0 213 93"><defs><path id="a" d="M539 156.71c11.6 10.82 42 13.86 113.28 0 30.43-4.89 60.81-8.31 90.72 0v-1.18c-27.02-19.27-72.2-17.15-107.21-6.5-53.63 16.61-81.59 17.02-96.79 3.44z"/><path id="b" d="M579.66 112.07c0 1.5-.58 2.8-1.5 3.79a5.17 5.17 0 0 1 .18 5.18 16.99 16.99 0 0 1-7.22 7.12c-4.01 2.15-8.66 2.87-13.19 2.87-5.72 0-11.52-1.15-16.17-4.62-4.62-3.46-6.76-8.36-6.76-14 0-5.71 2.14-10.71 6.79-14.26 4.55-3.49 10.09-4.78 15.78-4.78 5.39 0 10.65 1.21 15.01 4.39v-5.27c0-.37-.01-.73.01-1.11a5.73 5.73 0 0 1 1.43-3.65c1.38-1.52 3.15-1.86 5.11-1.86h2.22c1.16 0 2.28.19 3.25.67v-7.63c0-3.51 3.14-5.91 6.52-5.91h2.85a6.7 6.7 0 0 1 5.79 3.16 6.67 6.67 0 0 1 5.79-3.16h2.84c3.39 0 6.53 2.4 6.53 5.91v10.04a6.7 6.7 0 0 1 5.74-3.08h2.85c3.38 0 6.52 2.41 6.52 5.91v2.73c0 1.03-.27 1.96-.74 2.77.09.16.18.32.25.49 1.01-2.23 3.46-3.63 6.04-3.63h2.22c1.4 0 2.76.41 3.87 1.14l.87-.38.04-.01.05-.02a22.65 22.65 0 0 1 8.09-1.34c3.7 0 7.34.67 10.68 2.25a17.44 17.44 0 0 1 7.22 6.15c.32-.72.74-1.41 1.23-2.06a13.8 13.8 0 0 1 4.81-3.93 21.85 21.85 0 0 1 5.24-1.76l.1-.02a33.5 33.5 0 0 1 6.55-.63c3.07 0 6.18.29 9.15 1.1 2.6.71 5.19 1.78 7.12 3.69a12.52 12.52 0 0 1 2.97 4.79 17.4 17.4 0 0 1 4.34-4.81c4.56-3.48 10.09-4.77 15.79-4.77 5.55 0 10.96 1.29 15.39 4.68 4.59 3.51 6.68 8.38 6.69 14.02 0 1.5-.57 2.8-1.49 3.79a5.23 5.23 0 0 1 .17 5.18 17.02 17.02 0 0 1-7.21 7.12c-4.01 2.15-8.67 2.87-13.19 2.87-5.73 0-11.53-1.16-16.17-4.63a16.96 16.96 0 0 1-3.59-3.59c-.48.86-1.08 1.68-1.79 2.44a16.95 16.95 0 0 1-7.51 4.44 31.7 31.7 0 0 1-9.49 1.34c-4.56 0-9.67-.56-13.69-2.83a14.67 14.67 0 0 1-5.69-5.55 18.36 18.36 0 0 1-7.72 6.2 25.52 25.52 0 0 1-10.37 2.18c-1.81 0-3.6-.19-5.35-.62v4.52c0 3.51-3.14 5.91-6.52 5.91h-2.81c-3.38 0-6.52-2.4-6.52-5.91v-7.28a6.78 6.78 0 0 1-5.55 2.77h-2.85c-2.67 0-5.19-1.5-6.13-3.86-.94 2.36-3.46 3.86-6.14 3.86h-2.84c-2.4 0-4.67-1.2-5.79-3.15a6.69 6.69 0 0 1-5.79 3.15h-2.85c-3.38 0-6.52-2.4-6.52-5.91v-22.92c-.16.5-.35.99-.57 1.47-.98 2.07-2.68 3.61-5.01 3.82.42 1.59.63 3.27.64 5.03zm64.64.91c.05 1.27.28 2.92 1.33 3.8a6.21 6.21 0 0 0 4.2 1.38c1.64 0 3.07-.42 4.32-1.48 1.23-1.05 1.45-3.06 1.45-4.55 0-1.48-.21-3.28-1.41-4.32a5.95 5.95 0 0 0-4.06-1.44c-1.67 0-3.01.52-4.26 1.6-1.19 1.03-1.51 2.56-1.57 4.06v.95z"/><path id="c" d="M681 121.17c1.83 1.07 4.36 1.33 6.44 1.33 1.89 0 4.5-.17 6.15-1.16.83-.5 1.76-1.27 1.76-2.31 0-.85-.71-1.33-1.41-1.66-.61-.28-1.5-.48-2.16-.64-1.4-.33-2.82-.6-4.24-.86-2.03-.37-4.06-.76-6.08-1.22-1.31-.3-2.66-.63-3.94-1.07a10.27 10.27 0 0 1-4.59-2.87 6.38 6.38 0 0 1-1.66-4.22c0-1.46.48-2.77 1.36-3.94a10.13 10.13 0 0 1 3.52-2.87 18.6 18.6 0 0 1 4.32-1.44h.01c1.92-.38 3.87-.56 5.82-.56 2.71 0 5.51.26 8.14.97 1.91.53 4.02 1.33 5.44 2.75.88.87 1.52 1.9 1.97 3.04.11.28.14.58.08.88-.2 1.06-1.35 1.6-2.35 1.6h-2.91a4.27 4.27 0 0 1-3.26-1.54 4.7 4.7 0 0 0-1.24-1.02c-1.53-.87-3.69-1.06-5.41-1.06-1.7 0-4.43.11-5.95.95-.61.33-1.43.9-1.43 1.68 0 .39.2.69.49.95v.01l.01.01c.51.47 1.45.82 2.12 1.03.61.15 1.24.27 1.85.4 1.27.26 2.53.51 3.8.75 1.96.38 3.92.78 5.87 1.21 1.28.29 2.58.59 3.83.98 1.74.54 3.39 1.36 4.67 2.67a6.38 6.38 0 0 1 1.8 4.59 7.3 7.3 0 0 1-2.14 5c-1.55 1.68-3.7 2.73-5.87 3.42a27.6 27.6 0 0 1-8.33 1.17c-3.83 0-8.43-.43-11.82-2.35a10.88 10.88 0 0 1-4.92-5.55 1.5 1.5 0 0 1-.09-.89c.2-1.06 1.33-1.6 2.33-1.6h2.98c1.24 0 2.51.58 3.18 1.64a5.62 5.62 0 0 0 1.86 1.8zm34.55-6.2a7.85 7.85 0 0 0 3.09 5.31c2.18 1.62 4.76 2.22 7.45 2.22 1.95 0 3.93-.32 5.66-1.24a7.8 7.8 0 0 0 2.58-2.23c.76-1 2.07-1.51 3.31-1.51h3.4c.98 0 2.06.55 2.22 1.59.06.33 0 .68-.16.98a13.25 13.25 0 0 1-5.67 5.59c-3.43 1.86-7.51 2.44-11.37 2.44-4.87 0-9.93-.92-13.89-3.9-3.66-2.75-5.27-6.6-5.27-11.11 0-4.61 1.62-8.55 5.33-11.41 3.88-2.99 8.63-4.02 13.47-4.02 4.68 0 9.31 1.03 13.07 3.92 3.65 2.82 5.22 6.64 5.23 11.17 0 1.43-1.48 2.2-2.76 2.2zm-75.32-14.2a15.25 15.25 0 0 1 3.46-1.99h.02c2.12-.82 4.46-1.1 6.72-1.1 3.12 0 6.21.55 9.04 1.9a13.58 13.58 0 0 1 6.06 5.45 14.94 14.94 0 0 1 2.02 7.66c0 2.88-.69 5.6-2.23 8.05a14.45 14.45 0 0 1-6.53 5.51 21.43 21.43 0 0 1-8.82 1.87c-2.1 0-4.19-.3-6.16-1.05a15.45 15.45 0 0 1-2.99-1.49v10.22c0 1.4-1.44 2.2-2.73 2.2h-2.81c-1.29 0-2.73-.79-2.73-2.2v-35.31c0-1.4 1.44-2.2 2.73-2.2h2.22c1.29 0 2.73.8 2.73 2.2zm-19.88 26.74c-1.29 0-2.73-.8-2.73-2.21v-24.81c0-1.4 1.44-2.2 2.73-2.2h2.84c1.29 0 2.73.8 2.73 2.2v24.81c0 1.41-1.44 2.21-2.73 2.21zm0-30.39c-1.29 0-2.73-.8-2.73-2.21v-2.74c0-1.41 1.44-2.2 2.73-2.2h2.84c1.29 0 2.73.79 2.73 2.2v2.74c0 1.41-1.44 2.21-2.73 2.21zm-15.13 30.39c-1.28 0-2.73-.8-2.73-2.21V79.2c0-1.41 1.45-2.2 2.73-2.2h2.85c1.28 0 2.73.79 2.73 2.2v46.1c0 1.41-1.45 2.21-2.73 2.21zm-14.44 0c-1.28 0-2.73-.8-2.73-2.21V79.2c0-1.41 1.45-2.2 2.73-2.2h2.85c1.28 0 2.73.79 2.73 2.2v46.1c0 1.41-1.45 2.21-2.73 2.21zm-12.84-23.7a1.7 1.7 0 0 1-1.34-.41c-.76-.7-.58-1.91-.58-2.83v-7.68c0-.75-.07-1.71.47-2.3.56-.62 1.52-.62 2.29-.62H581c.78 0 1.69.09 2.16.81.54.82.05 2.04-.21 2.89l-2.23 7.14c-.39 1.22-1.02 3-2.58 3zm138 5.54h19.23a6.4 6.4 0 0 0-1.98-3.59c-2.09-1.8-4.7-2.46-7.43-2.46-2.5 0-4.91.52-6.97 1.97a6.68 6.68 0 0 0-2.85 4.08zm-75.73 4.31c.09 2.43.71 4.9 2.65 6.54a10.03 10.03 0 0 0 6.68 2.3c2.56 0 4.87-.75 6.81-2.42 2.17-1.85 2.77-4.7 2.77-7.42 0-2.66-.61-5.33-2.71-7.16a9.68 9.68 0 0 0-6.57-2.38c-2.59 0-4.83.85-6.77 2.54-2.01 1.75-2.76 4.17-2.86 6.76-.02.41-.02.83 0 1.24z"/><path id="d" d="M547.39 114.61a8.13 8.13 0 0 0 3 5.41 11.43 11.43 0 0 0 7.23 2.25c1.89 0 3.81-.31 5.49-1.25 1-.56 1.83-1.34 2.51-2.28.73-1.02 2-1.54 3.21-1.54h3.3c.95 0 1.99.57 2.16 1.62.05.35-.01.69-.16 1a13.22 13.22 0 0 1-5.5 5.7c-3.33 1.89-7.29 2.48-11.04 2.48-4.73 0-9.64-.93-13.47-3.96-3.56-2.82-5.12-6.73-5.12-11.32 0-4.7 1.57-8.72 5.17-11.63 3.76-3.04 8.38-4.09 13.07-4.09 4.55 0 9.04 1.05 12.68 4 3.55 2.86 5.07 6.75 5.08 11.37 0 1.45-1.44 2.24-2.68 2.24zm19.04-5.73a6.56 6.56 0 0 0-1.92-3.65c-2.03-1.84-4.56-2.5-7.21-2.5-2.42 0-4.77.52-6.77 2a6.83 6.83 0 0 0-2.76 4.15z"/></defs><g transform="translate(-535 -73)"><use fill="#f5b3ce" xlink:href="#a"/><use fill="#fff" xlink:href="#b"/><g><use fill="#9c0c28" xlink:href="#c"/></g><g><use fill="#f5b3ce" xlink:href="#d"/></g></g></svg>